<svg width="24" height="25" viewBox="0 0 24 25" fill="none" xmlns="http://www.w3.org/2000/svg">
<path fill-rule="evenodd" clip-rule="evenodd" d="M18 3.95544H6C4.35 3.95544 3 5.30544 3 6.95544V18.9554C3 20.6054 4.35 21.9554 6 21.9554H12.57V15.0454H10.24V12.3554H12.57V10.3654C12.57 8.06544 13.98 6.80544 16.03 6.80544C17.02 6.80544 17.86 6.87544 18.11 6.91544V9.32544H16.68C15.56 9.32544 15.35 9.85544 15.35 10.6354V12.3554H18.02L17.67 15.0454H15.35V21.9554H18C19.65 21.9554 21 20.6054 21 18.9554V6.95544C21 5.30544 19.65 3.95544 18 3.95544Z" fill="black"/>
<path fill-rule="evenodd" clip-rule="evenodd" d="M18 3.95544H6C4.35 3.95544 3 5.30544 3 6.95544V18.9554C3 20.6054 4.35 21.9554 6 21.9554H12.57V15.0454H10.24V12.3554H12.57V10.3654C12.57 8.06544 13.98 6.80544 16.03 6.80544C17.02 6.80544 17.86 6.87544 18.11 6.91544V9.32544H16.68C15.56 9.32544 15.35 9.85544 15.35 10.6354V12.3554H18.02L17.67 15.0454H15.35V21.9554H18C19.65 21.9554 21 20.6054 21 18.9554V6.95544C21 5.30544 19.65 3.95544 18 3.95544Z" fill="white" fill-opacity="0.2"/>
</svg>
