<svg width="24" height="25" viewBox="0 0 24 25" fill="none" xmlns="http://www.w3.org/2000/svg">
<path fill-rule="evenodd" clip-rule="evenodd" d="M17 4H7C4.79 4 3 5.79 3 8V18C3 20.21 4.79 22 7 22H17C19.21 22 21 20.21 21 18V8C21 5.79 19.21 4 17 4ZM19 18C19 19.1 18.1 20 17 20H7C5.9 20 5 19.1 5 18V8C5 6.9 5.9 6 7 6H17C18.1 6 19 6.9 19 8V18ZM16.5 9.75C17.1904 9.75 17.75 9.19036 17.75 8.5C17.75 7.80964 17.1904 7.25 16.5 7.25C15.8096 7.25 15.25 7.80964 15.25 8.5C15.25 9.19036 15.8096 9.75 16.5 9.75ZM8 13C8 10.79 9.79 9 12 9C14.21 9 16 10.79 16 13C16 15.21 14.21 17 12 17C9.79 17 8 15.21 8 13ZM10 13C10 14.1 10.9 15 12 15C13.1 15 14 14.1 14 13C14 11.9 13.1 11 12 11C10.9 11 10 11.9 10 13Z" fill="black"/>
<path fill-rule="evenodd" clip-rule="evenodd" d="M17 4H7C4.79 4 3 5.79 3 8V18C3 20.21 4.79 22 7 22H17C19.21 22 21 20.21 21 18V8C21 5.79 19.21 4 17 4ZM19 18C19 19.1 18.1 20 17 20H7C5.9 20 5 19.1 5 18V8C5 6.9 5.9 6 7 6H17C18.1 6 19 6.9 19 8V18ZM16.5 9.75C17.1904 9.75 17.75 9.19036 17.75 8.5C17.75 7.80964 17.1904 7.25 16.5 7.25C15.8096 7.25 15.25 7.80964 15.25 8.5C15.25 9.19036 15.8096 9.75 16.5 9.75ZM8 13C8 10.79 9.79 9 12 9C14.21 9 16 10.79 16 13C16 15.21 14.21 17 12 17C9.79 17 8 15.21 8 13ZM10 13C10 14.1 10.9 15 12 15C13.1 15 14 14.1 14 13C14 11.9 13.1 11 12 11C10.9 11 10 11.9 10 13Z" fill="white" fill-opacity="0.2"/>
</svg>
