<svg width="282" height="41" viewBox="0 0 282 41" fill="none" xmlns="http://www.w3.org/2000/svg">
<g clip-path="url(#clip0_34_1603)">
<path fill-rule="evenodd" clip-rule="evenodd" d="M30.9056 0.955444L25.969 12.4976L25.9695 12.4964C25.6912 13.1472 25.0602 14.4101 24.2244 15.187C23.8962 15.4921 23.5258 15.7464 23.1104 15.9118V16.0954H27.276L27.2779 15.9118C26.7885 15.6002 26.5409 15.1731 26.4804 14.662C26.4084 14.0557 26.6341 13.328 26.9631 12.5404L27.5105 11.2406H32.637L33.2899 12.83C33.6296 13.7172 33.742 14.3146 33.5827 14.9045C33.4734 15.3091 33.2284 15.6514 32.8192 15.9118L32.821 16.0954H38.7192L38.7191 15.9118C38.209 15.6243 37.8181 15.282 37.4924 14.8893C36.948 14.2331 36.5135 13.3578 36.1692 12.571L31.1525 0.955444H30.9056ZM27.9142 10.2821L30.1056 5.0789L32.2432 10.2821H27.9142ZM276.461 6.73608C276.694 6.86313 276.909 6.98075 277.091 7.09216C277.381 7.27723 277.691 7.45631 278.007 7.63829L278.007 7.63843C279.572 8.54165 281.261 9.5161 281.261 11.6455C281.261 14.2718 278.786 16.1273 276.46 16.1273C274.482 16.1273 272.661 15.4105 271.605 14.8544L271.403 11.2816L271.574 11.281C271.915 11.9766 272.229 12.551 272.582 13.0258C273.878 14.7703 275.207 15.1578 276.25 15.1529C277.696 15.1461 278.788 14.5094 278.788 13.1476C278.788 11.683 277.176 10.7214 275.345 9.62955L275.116 9.49244C274.954 9.39261 274.79 9.29399 274.626 9.19526C273.056 8.24934 271.47 7.29436 271.47 5.19028C271.47 2.5615 273.862 0.997556 275.866 0.997556C276.888 0.997556 277.944 1.09975 280.04 1.78683L280.287 5.2165L280.116 5.21595C280.08 5.12971 280.043 5.04155 280.006 4.95203C279.454 3.62076 278.777 1.99084 276.268 1.94702C275.129 1.92711 273.773 2.45992 273.773 3.81979C273.773 5.26856 275.323 6.115 276.461 6.73608ZM241.971 11.0876L235.55 2.76111C235.18 2.28217 234.776 1.78629 234.217 1.49454C233.644 1.1951 233.015 1.19649 232.39 1.19786L232.264 1.19805H229.738V1.3819C231.333 2.0496 232.264 3.14912 232.264 5.04039V12.5642C232.262 13.4062 232.158 14.164 231.72 14.7835C231.398 15.2392 230.891 15.6216 230.099 15.9117V16.0954H235.494V15.9117C234.701 15.6216 234.194 15.2392 233.872 14.7835C233.434 14.164 233.33 13.4062 233.328 12.5642V4.27579L242.415 16.1383H243.035V4.7093C243.039 3.8753 243.145 3.12445 243.579 2.50997C243.901 2.05429 244.408 1.67183 245.201 1.38174V1.19805H239.806V1.38174C240.598 1.67183 241.105 2.05429 241.427 2.50997C241.865 3.12935 241.969 3.88725 241.971 4.72921V11.0876ZM164.998 35.9102C164.998 37.5204 165.385 38.7639 166.159 39.6405C166.933 40.5172 168.014 40.9554 169.403 40.9554C170.801 40.9554 171.884 40.5194 172.654 39.6472C173.423 38.775 173.808 37.5294 173.808 35.9102C173.808 34.2911 173.423 33.0409 172.654 32.1597C171.884 31.2787 170.801 30.838 169.403 30.838C168.014 30.838 166.933 31.2787 166.159 32.1597C165.385 33.0409 164.998 34.2911 164.998 35.9102ZM171.95 38.4999C171.756 39.162 171.451 39.6472 171.035 39.9558C170.619 40.2644 170.075 40.4187 169.403 40.4187C168.74 40.4187 168.2 40.2644 167.785 39.9558C167.369 39.6472 167.064 39.162 166.869 38.4999C166.674 37.838 166.577 36.9658 166.577 35.8833C166.577 34.8098 166.674 33.9423 166.869 33.2802C167.064 32.6183 167.369 32.1352 167.785 31.831C168.2 31.527 168.74 31.3747 169.403 31.3747C170.075 31.3747 170.619 31.527 171.035 31.831C171.451 32.1352 171.756 32.6159 171.95 33.2735C172.145 33.931 172.242 34.8011 172.242 35.8833C172.242 36.9658 172.145 37.838 171.95 38.4999ZM77.1421 40.6603V40.1772C78.1504 40.3026 79.0878 40.3651 79.9548 40.3651C80.9365 40.3651 81.6816 40.2107 82.1903 39.9021C82.6988 39.5935 82.9532 39.1127 82.9532 38.4597C82.9532 38.1466 82.9067 37.8917 82.8139 37.6948C82.721 37.4981 82.5728 37.3237 82.3694 37.1715C82.1837 37.0373 81.9492 36.9212 81.6663 36.8226C81.3831 36.7243 80.932 36.5811 80.313 36.3932C79.7823 36.2412 79.3333 36.0892 78.9663 35.937C78.5992 35.785 78.2963 35.6149 78.0575 35.4271C77.7832 35.2124 77.582 34.9575 77.4538 34.6622C77.3255 34.367 77.2615 34.0048 77.2615 33.5754C77.2615 32.5914 77.6018 31.8937 78.2831 31.4821C78.9641 31.0707 79.8928 30.8649 81.0692 30.8649C81.4141 30.8649 81.8209 30.8873 82.2898 30.932C82.7585 30.9768 83.2096 31.0393 83.6431 31.1198V31.6029C82.7055 31.4867 81.9184 31.4284 81.2815 31.4284C80.4235 31.4284 79.769 31.5626 79.3179 31.831C78.8668 32.0994 78.6413 32.5421 78.6413 33.1594C78.6413 33.4546 78.6854 33.6984 78.7739 33.8907C78.8623 34.0832 78.9995 34.2419 79.1852 34.367C79.371 34.5012 79.6185 34.6243 79.9282 34.736C80.2377 34.848 80.6579 34.9799 81.1886 35.1319C81.737 35.2841 82.1881 35.4317 82.5419 35.5747C82.8956 35.7179 83.1963 35.8833 83.4441 36.0712C83.7447 36.2949 83.9681 36.5633 84.1141 36.8763C84.26 37.1895 84.333 37.574 84.333 38.0303C84.333 39.0322 83.9416 39.7658 83.1588 40.2309C82.3761 40.6961 81.3876 40.9286 80.1935 40.9286C79.1763 40.9286 78.1591 40.8393 77.1421 40.6603ZM92.585 30.9454H94.0843V40.8481H92.585V30.9454ZM103.65 30.9454H102.748V40.8481H103.345V32.985L109.302 40.8481H110.098V30.9454H109.501V38.5804L103.65 30.9454ZM119.597 39.7612C118.748 38.983 118.324 37.6994 118.324 35.9102C118.324 34.157 118.753 32.8776 119.611 32.0725C120.469 31.2674 121.716 30.8649 123.352 30.8649C124.245 30.8649 125.148 30.95 126.059 31.1198V31.6029C125.156 31.4867 124.391 31.4284 123.763 31.4284C122.729 31.4284 121.937 31.5649 121.389 31.8377C120.84 32.1107 120.455 32.5623 120.234 33.193C120.013 33.8236 119.903 34.7206 119.903 35.8833C119.903 37.0373 120.013 37.9319 120.234 38.567C120.455 39.2023 120.829 39.6585 121.355 39.9356C121.882 40.213 122.627 40.3516 123.591 40.3516C124.095 40.3516 124.537 40.3338 124.918 40.298V36.0309H122.782V35.4942H126.364V40.7273C125.506 40.8615 124.506 40.9286 123.365 40.9286C121.702 40.9286 120.447 40.5395 119.597 39.7612ZM138.795 30.9454H137.455L133.886 40.8481H134.51L135.584 37.829H139.75L140.838 40.8481H142.404L138.795 30.9454ZM137.667 32.0054L139.564 37.2923H135.77L137.667 32.0054ZM150.152 30.9454H153.721C154.862 30.9454 155.751 31.1959 156.388 31.6968C157.025 32.1979 157.343 32.9628 157.343 33.9914C157.343 35.0292 157.033 35.8186 156.414 36.3597C155.795 36.901 154.924 37.1715 153.801 37.1715H151.651V40.8481H150.152V30.9454ZM155.287 36.0377C155.632 35.6397 155.804 34.9665 155.804 34.0182C155.804 33.097 155.627 32.4438 155.273 32.0591C154.919 31.6746 154.314 31.4821 153.456 31.4821H151.651V36.6348H153.522C154.353 36.6348 154.942 36.4358 155.287 36.0377ZM182.033 30.9454H185.496C186.708 30.9454 187.652 31.1848 188.329 31.6633C189.006 32.1419 189.344 32.8776 189.344 33.8706C189.344 34.631 189.138 35.2527 188.727 35.7358C188.316 36.2188 187.734 36.5499 186.982 36.7287L189.384 40.8481H187.765L185.443 36.8763H183.493V40.8481H182.033V30.9454ZM186.843 36.0779C187.183 35.9215 187.433 35.6666 187.593 35.3131C187.752 34.9598 187.831 34.4791 187.831 33.8706C187.831 33.2802 187.752 32.8106 187.593 32.4617C187.433 32.1128 187.177 31.8625 186.823 31.7103C186.469 31.5582 185.996 31.4821 185.403 31.4821H183.493V36.3127H185.47C186.045 36.3127 186.502 36.2346 186.843 36.0779ZM204.097 30.9454H197.596V40.8481H204.19V40.3114H199.095V36.031H203.632V35.4942H199.095V31.4821H204.097V30.9454ZM53.154 8.74869C53.5537 9.6275 55.3516 12.7505 56.0165 13.5952L56.0368 13.6214C56.2396 13.8852 57.5622 15.6058 58.8679 15.9116L58.8687 16.0953C55.2288 16.26 54.4505 16.1137 52.3953 12.7556L50.4493 9.07002V8.98705C51.7534 8.95894 52.7243 7.32748 52.7243 5.52902C52.7243 3.47639 51.6867 2.12395 50.4072 2.12395H48.8225V12.5658C48.824 13.4706 48.9128 14.2732 49.3045 14.916C49.547 15.3136 49.9076 15.6501 50.4418 15.9117V16.0954H44.4838V15.9117C45.0232 15.6475 45.3858 15.3069 45.6284 14.9039C46.0168 14.2583 46.1029 13.4524 46.1029 12.5443V4.74913C46.1029 4.01311 46.0443 3.33961 45.8152 2.76762C45.587 2.19733 45.1847 1.72502 44.4838 1.38167V1.19806L50.0544 1.19798C52.4765 1.19798 55.5613 2.149 55.5613 5.18872C55.5613 6.8273 54.4374 8.2315 53.154 8.74869ZM137.074 8.06706C138.437 7.67328 139.828 6.07468 139.828 4.60155C139.828 2.08128 137.18 1.19811 134.243 1.19811H128.378V1.38172C128.897 1.63622 129.253 1.96175 129.495 2.34523C129.907 2.99818 129.997 3.82017 129.997 4.74917V12.5443C129.997 13.4369 129.913 14.236 129.538 14.8771C129.296 15.2918 128.929 15.6417 128.378 15.9118V16.0955L134.485 16.0945C138.135 16.0742 140.848 15.1659 140.848 11.8768C140.848 10.0588 138.821 8.44896 137.074 8.10241V8.06706ZM132.71 15.1544V2.13913H134.617C135.776 2.13913 137.3 3.06525 137.3 5.07463C137.3 6.62546 136.474 7.99319 134.315 8.35059V8.45895C136.186 8.8247 138.167 10.0318 138.167 11.9844C138.167 14.0844 137.069 15.1544 134.883 15.1544H132.71ZM71.1082 15.9117V16.0954H65.1505V15.9117C65.6192 15.6821 65.9544 15.395 66.1932 15.0594C66.6701 14.3898 66.7698 13.5281 66.7698 12.5443V4.74905C66.7698 3.76532 66.6701 2.90368 66.1932 2.23394C65.9544 1.8984 65.6192 1.61126 65.1505 1.38167V1.19798H71.1082V1.38167C70.5501 1.65507 70.1813 2.01012 69.9389 2.43137C69.5775 3.05998 69.4918 3.83831 69.489 4.70759V12.5859C69.4918 13.4551 69.5775 14.2335 69.9389 14.862C70.1813 15.2833 70.5501 15.6383 71.1082 15.9117ZM256.957 16.0961L251.569 16.0954V15.9117C252.201 15.6023 252.59 15.188 252.828 14.6918C253.114 14.0945 253.186 13.3783 253.188 12.5824V4.72649C253.187 3.76914 253.088 2.92523 252.633 2.26493C252.393 1.91613 252.052 1.6183 251.569 1.38167V1.19806L256.957 1.19798C261.239 1.19798 264.576 3.99266 264.541 8.6593C264.576 13.3259 261.239 16.0961 256.957 16.0961ZM255.907 15.1544H257.419C261.023 15.0353 261.507 11.6824 261.507 8.65962C261.507 5.63636 261.024 2.25813 257.419 2.13901H255.907V15.1544ZM12.7738 2.75743L9.3356 11.7809L5.70831 2.77452L5.68797 2.72393L5.68797 2.72393C5.51267 2.28753 5.35903 1.90504 4.96745 1.5832C4.64202 1.31591 4.23955 1.19811 3.73766 1.19811H0.0293246V1.38196C1.37799 2.04966 2.16531 3.14917 2.16531 5.04044V12.5443C2.16531 14.0161 1.87739 15.2242 0 15.9118V16.0955H5.39492V15.9118C3.52354 15.2263 3.2316 14.0266 3.22976 12.5582V3.60399L8.29817 16.0955H8.61372L13.4657 3.57643V12.5617C13.464 14.0288 13.2449 15.2268 11.8466 15.9118V16.0955H17.8045V15.9118C16.406 15.2268 16.1871 14.0285 16.1854 12.5617V4.73192C16.1871 3.26659 16.406 2.06677 17.8045 1.38172V1.19811H14.737C14.3071 1.19811 13.9375 1.30372 13.6381 1.49055C13.1344 1.80513 12.9956 2.1718 12.8072 2.66929L12.7738 2.75743ZM199.436 6.7361C199.669 6.86314 199.884 6.98075 200.065 7.09216C200.356 7.27728 200.666 7.45642 200.982 7.63845C202.547 8.54167 204.236 9.51612 204.236 11.6455C204.236 14.2718 201.761 16.1273 199.435 16.1273C197.457 16.1273 195.635 15.4105 194.58 14.8544L194.378 11.2816L194.548 11.281C194.89 11.9766 195.204 12.551 195.557 13.0258C196.852 14.7703 198.182 15.1578 199.225 15.1529C200.67 15.1461 201.762 14.5094 201.762 13.1476C201.762 11.683 200.15 10.7214 198.32 9.62956L198.091 9.49244C197.929 9.39261 197.765 9.29398 197.601 9.19525C196.03 8.24934 194.445 7.29435 194.445 5.19028C194.445 2.5615 196.837 0.997556 198.841 0.997556C199.863 0.997556 200.918 1.09975 203.015 1.78683L203.262 5.2165L203.091 5.21595C203.055 5.13119 203.019 5.04456 202.983 4.95663L202.982 4.95346L202.981 4.95198C202.429 3.62071 201.752 1.99084 199.243 1.94702C198.104 1.92711 196.747 2.45992 196.747 3.81979C196.747 5.26857 198.298 6.11501 199.436 6.7361ZM101.13 12.4964L106.066 0.955444H106.313L111.329 12.571C111.673 13.3578 112.108 14.2331 112.652 14.8893C112.978 15.282 113.369 15.6243 113.879 15.9118L113.879 16.0954H107.981L107.979 15.9118C108.388 15.6514 108.633 15.3091 108.743 14.9045C108.902 14.3146 108.79 13.7172 108.45 12.83L107.797 11.2406H102.671L102.123 12.5404C101.794 13.328 101.569 14.0557 101.64 14.662C101.701 15.1731 101.949 15.6002 102.438 15.9118L102.436 16.0954H98.2704V15.9118C98.6859 15.7464 99.0562 15.4921 99.3844 15.187C100.22 14.4101 100.851 13.1472 101.13 12.4964ZM105.266 5.0789L103.074 10.2821H107.403L105.266 5.0789ZM153.774 0.955444L148.838 12.4964C148.56 13.1472 147.929 14.4101 147.093 15.187C146.765 15.4921 146.395 15.7464 145.979 15.9118L145.979 16.0954H150.145L150.147 15.9118C149.657 15.6002 149.41 15.1731 149.349 14.662C149.277 14.0557 149.503 13.328 149.832 12.5404L150.379 11.2406H155.506L156.159 12.83C156.499 13.7172 156.611 14.3146 156.452 14.9045C156.342 15.3091 156.097 15.6514 155.688 15.9118L155.69 16.0954H161.588V15.9118C161.078 15.6243 160.687 15.282 160.361 14.8893C159.817 14.2331 159.382 13.3578 159.038 12.571L154.021 0.955444H153.774ZM150.783 10.2821L152.974 5.0789L155.112 10.2821H150.783ZM212.221 12.4964L217.158 0.955444H217.405L222.421 12.571C222.766 13.3578 223.2 14.2331 223.744 14.8893C224.07 15.282 224.461 15.6243 224.971 15.9118L224.971 16.0954H219.073L219.071 15.9118C219.481 15.6514 219.726 15.3091 219.835 14.9045C219.994 14.3146 219.882 13.7172 219.542 12.83L218.889 11.2406H213.763L213.215 12.5404C212.886 13.328 212.661 14.0557 212.732 14.662C212.793 15.1731 213.04 15.6002 213.53 15.9118L213.528 16.0954H209.362L209.363 15.9118C209.778 15.7464 210.148 15.4921 210.477 15.187C211.312 14.4101 211.943 13.1472 212.221 12.4964ZM216.358 5.0789L214.166 10.2821H218.495L216.358 5.0789ZM168.21 4.49694C167.224 3.01099 166.245 2.13133 164.58 1.38196V1.19811H171.674V1.38196C171.068 1.56329 170.619 1.9207 170.408 2.34507C170.332 2.49925 170.3 2.6639 170.302 2.83667C170.308 3.29766 170.58 3.88411 170.833 4.35477L170.957 4.5858C171.265 5.15821 171.521 5.63312 171.868 6.40069C172.303 7.36436 172.655 8.32498 172.903 9.26859C173.145 8.07782 173.531 6.93093 174.026 5.82572C174.258 5.30697 174.512 4.81646 174.771 4.31866L174.822 4.22034C175.134 3.61891 175.426 2.99975 175.267 2.47013C175.139 2.04545 174.692 1.60562 174.067 1.38196V1.19811H179.193V1.38196C177.53 2.13945 176.571 3.03988 175.79 4.38109C174.415 6.79361 173.481 9.43606 173.481 12.2612V12.586C173.483 13.4579 173.569 14.2342 173.931 14.8628C174.173 15.2838 174.542 15.6385 175.1 15.9118V16.0955H169.255V15.9118C169.813 15.6385 170.181 15.2838 170.424 14.8628C170.792 14.2242 170.874 13.4332 170.874 12.5443V12.261C170.874 9.62005 169.845 7.08239 168.21 4.49694ZM84.3993 2.76111L90.8204 11.0876V4.72921C90.8187 3.88725 90.7145 3.12935 90.2765 2.50997C89.9543 2.05429 89.4475 1.67183 88.6552 1.38174V1.19805H94.05V1.38174C93.2579 1.67183 92.7509 2.05429 92.4287 2.50997C91.9943 3.12445 91.8881 3.8753 91.885 4.7093V16.1383H91.2645L82.1778 4.27579V12.5642C82.1795 13.4062 82.2837 14.164 82.7216 14.7835C83.0438 15.2392 83.5507 15.6216 84.3429 15.9117V16.0954H78.948V15.9117C79.7403 15.6216 80.2473 15.2392 80.5694 14.7835C81.0074 14.164 81.1116 13.4062 81.1133 12.5642V5.04039C81.1133 3.14912 80.1821 2.0496 78.5874 1.3819V1.19805H81.1133C81.1555 1.19805 81.1977 1.19796 81.24 1.19786C81.8646 1.19649 82.4933 1.1951 83.0667 1.49454C83.6252 1.78629 84.03 2.28217 84.3993 2.76111Z" fill="black"/>
</g>
<defs>
<clipPath id="clip0_34_1603">
<rect width="281.261" height="40" fill="white" transform="translate(0 0.955444)"/>
</clipPath>
</defs>
</svg>
