<svg width="24" height="25" viewBox="0 0 24 25" fill="none" xmlns="http://www.w3.org/2000/svg">
<g clip-path="url(#clip0_32_1410)">
<path fill-rule="evenodd" clip-rule="evenodd" d="M14.07 11.62L20.74 4H17.69L12.66 9.75L8.3 4H2L9.53 13.84L2.39 22H5.45L10.96 15.71L15.77 22H21.91L14.06 11.62H14.07ZM5.57 5.73H7.39L18.31 20.17H16.62L5.57 5.73Z" fill="black"/>
<path fill-rule="evenodd" clip-rule="evenodd" d="M14.07 11.62L20.74 4H17.69L12.66 9.75L8.3 4H2L9.53 13.84L2.39 22H5.45L10.96 15.71L15.77 22H21.91L14.06 11.62H14.07ZM5.57 5.73H7.39L18.31 20.17H16.62L5.57 5.73Z" fill="white" fill-opacity="0.2"/>
</g>
<defs>
<clipPath id="clip0_32_1410">
<rect width="19.91" height="18" fill="white" transform="translate(2 4)"/>
</clipPath>
</defs>
</svg>
