<svg width="24" height="25" viewBox="0 0 24 25" fill="none" xmlns="http://www.w3.org/2000/svg">
<path d="M10 16L15.19 13L10 10V16ZM21.56 8.17C21.69 8.64 21.78 9.27 21.84 10.07C21.91 10.87 21.94 11.56 21.94 12.16L22 13C22 15.19 21.84 16.8 21.56 17.83C21.31 18.73 20.73 19.31 19.83 19.56C19.36 19.69 18.5 19.78 17.18 19.84C15.88 19.91 14.69 19.94 13.59 19.94L12 20C7.81 20 5.2 19.84 4.17 19.56C3.27 19.31 2.69 18.73 2.44 17.83C2.31 17.36 2.22 16.73 2.16 15.93C2.09 15.13 2.06 14.44 2.06 13.84L2 13C2 10.81 2.16 9.2 2.44 8.17C2.69 7.27 3.27 6.69 4.17 6.44C4.64 6.31 5.5 6.22 6.82 6.16C8.12 6.09 9.31 6.06 10.41 6.06L12 6C16.19 6 18.8 6.16 19.83 6.44C20.73 6.69 21.31 7.27 21.56 8.17Z" fill="black"/>
<path d="M10 16L15.19 13L10 10V16ZM21.56 8.17C21.69 8.64 21.78 9.27 21.84 10.07C21.91 10.87 21.94 11.56 21.94 12.16L22 13C22 15.19 21.84 16.8 21.56 17.83C21.31 18.73 20.73 19.31 19.83 19.56C19.36 19.69 18.5 19.78 17.18 19.84C15.88 19.91 14.69 19.94 13.59 19.94L12 20C7.81 20 5.2 19.84 4.17 19.56C3.27 19.31 2.69 18.73 2.44 17.83C2.31 17.36 2.22 16.73 2.16 15.93C2.09 15.13 2.06 14.44 2.06 13.84L2 13C2 10.81 2.16 9.2 2.44 8.17C2.69 7.27 3.27 6.69 4.17 6.44C4.64 6.31 5.5 6.22 6.82 6.16C8.12 6.09 9.31 6.06 10.41 6.06L12 6C16.19 6 18.8 6.16 19.83 6.44C20.73 6.69 21.31 7.27 21.56 8.17Z" fill="white" fill-opacity="0.2"/>
</svg>
